# xmcd
# 
# Track frame offsets:
#     150
#     20297
#     38600
#     57503
#     77072
#     95386
#     114723
#     132461
#     149439
#     173072
#     191978
#     217210
#     236723
# 
# Disc length: 3389
# 
# Revision: 0
# Processed by: cddbd v1.5.2PL0 Copyright (c) Steve Scherf et al.
# Submitted via: fre:ac v1.0.27
# 
DISCID=c00d3b0d
DTITLE=HERENCIA DE TIMBIQUI - THIS IS GOZAR
DYEAR=0
DGENRE=Folklore
TTITLE0=QUES QUE LE COGE
TTITLE1=AMANECE
TTITLE2=APRENDI
TTITLE3=FIN DE SEMANA
TTITLE4=SABRAS
TTITLE5=THIS IS GOZAR
TTITLE6=IRONIA
TTITLE7=I A KELE KANDA
TTITLE8=PARIO LA LUNA
TTITLE9=TORMENTA
TTITLE10=A TU MANERA
TTITLE11=NEGRITO
TTITLE12=AFRIKA
EXTD=
EXTT0=
EXTT1=
EXTT2=
EXTT3=
EXTT4=
EXTT5=
EXTT6=
EXTT7=
EXTT8=
EXTT9=
EXTT10=
EXTT11=
EXTT12=
PLAYORDER=
